<svg width="34" height="34" viewBox="0 0 34 34" fill="none" xmlns="http://www.w3.org/2000/svg">
<circle cx="17" cy="17" r="17" fill="#39DA8A"/>
<path d="M24 23.7845H20.1005M22.0502 25.7027V21.8662M17.6535 26C15.8793 26 14.1147 25.5588 12.7694 24.6764C10.4102 23.1227 10.4102 20.5906 12.7694 19.0464C15.4503 17.2817 19.847 17.2817 22.5279 19.0464M17.8193 15.5073C17.7218 15.4977 17.6048 15.4977 17.4976 15.5073C16.3786 15.4699 15.3184 15.0055 14.5414 14.2125C13.7644 13.4194 13.3317 12.36 13.3348 11.2585C13.3333 10.6996 13.4439 10.146 13.6602 9.62924C13.8766 9.11252 14.1945 8.6429 14.5957 8.24729C14.9969 7.85168 15.4736 7.53786 15.9983 7.32383C16.523 7.10979 17.0855 6.99975 17.6535 7C20.042 7 21.982 8.90863 21.982 11.2585C21.982 13.5603 20.1297 15.4306 17.8193 15.5073Z" stroke="white" stroke-width="1.5" stroke-linecap="round" stroke-linejoin="round"/>
</svg>
