<svg width="34" height="34" viewBox="0 0 34 34" fill="none" xmlns="http://www.w3.org/2000/svg">
<circle cx="17" cy="17" r="17" fill="#E77577"/>
<path d="M13.9729 12.4143H21.0359M14.8558 15.9458H20.153M12.8517 23.6268C13.5756 22.8498 14.6792 22.9116 15.3149 23.7592L16.2066 24.9511C16.9217 25.8957 18.0782 25.8957 18.7934 24.9511L19.6851 23.7592C20.3207 22.9116 21.4243 22.8498 22.1483 23.6268C23.7198 25.3042 24.9999 24.748 24.9999 22.3996V12.4497C25.0088 8.8917 24.1789 8 20.8416 8H14.1671C10.8299 8 10 8.8917 10 12.4497V22.3908C10 24.748 11.289 25.2954 12.8517 23.6268Z" stroke="white" stroke-width="1.5" stroke-linecap="round" stroke-linejoin="round"/>
</svg>
