<svg width="34" height="34" viewBox="0 0 34 34" fill="none" xmlns="http://www.w3.org/2000/svg">
<circle cx="17" cy="17" r="17" fill="#01CFDD"/>
<path d="M24 23.305H20.3725M17.1894 26C15.5389 26 13.8975 25.5588 12.646 24.6765C10.4513 23.1228 10.4513 20.5908 12.646 19.0467C15.1399 17.282 19.2299 17.282 21.7238 19.0467M17.3345 15.5077C17.2438 15.4981 17.135 15.4981 17.0352 15.5077C15.9943 15.4703 15.008 15.0059 14.2853 14.2129C13.5625 13.4199 13.1599 12.3604 13.1629 11.259C13.1629 8.90926 14.9585 7.00069 17.1894 7.00069C18.2561 6.98034 19.2867 7.40896 20.0546 8.19226C20.8225 8.97556 21.2647 10.0494 21.2839 11.1775C21.3032 12.3056 20.8979 13.3956 20.1572 14.2076C19.4166 15.0197 18.4012 15.4874 17.3345 15.5077Z" stroke="white" stroke-width="1.5" stroke-linecap="round" stroke-linejoin="round"/>
</svg>
