<svg id="report" xmlns="http://www.w3.org/2000/svg" width="11.47" height="14.599" viewBox="0 0 11.47 14.599">
  <path id="Path_10" data-name="Path 10" d="M11.25,20.25h4.171v1.043H11.25Z" transform="translate(-8.643 -11.908)" fill="#292929"/>
  <path id="Path_11" data-name="Path 11" d="M11.25,14.625h6.257v1.043H11.25Z" transform="translate(-8.643 -8.89)" fill="#292929"/>
  <path id="Path_12" data-name="Path 12" d="M11.25,25.875h2.607v1.043H11.25Z" transform="translate(-8.643 -14.926)" fill="#292929"/>
  <path id="Path_13" data-name="Path 13" d="M16.053,3.814H14.489V3.293A1.043,1.043,0,0,0,13.446,2.25H9.275A1.043,1.043,0,0,0,8.232,3.293v.521H6.668A1.043,1.043,0,0,0,5.625,4.857V15.806a1.043,1.043,0,0,0,1.043,1.043h9.385A1.043,1.043,0,0,0,17.1,15.806V4.857A1.043,1.043,0,0,0,16.053,3.814ZM9.275,3.293h4.171V5.378H9.275Zm6.778,12.513H6.668V4.857H8.232V6.421h6.257V4.857h1.564Z" transform="translate(-5.625 -2.25)" fill="#292929"/>
</svg>
