<svg width="16" height="18" viewBox="0 0 16 18" fill="none" xmlns="http://www.w3.org/2000/svg">
<path fill-rule="evenodd" clip-rule="evenodd" d="M1.45455 0L0 1.23429V16.0457L1.45455 17.28H14.5455L16 16.0457V4.93714L15.574 4.06437L11.2103 0.361515L10.1818 0H1.45455ZM1.45455 16.0457V1.23429L8.72725 1.23428V6.17143H14.5455V16.0457H1.45455ZM14.5455 4.93714L10.1818 1.23429L10.1818 1.23428V4.93714L14.5455 4.93714ZM2.32434 7.89686C2.06895 8.11358 2.06895 8.46496 2.32434 8.68168L5.12611 11.0592L2.32431 13.4367C2.06892 13.6534 2.06892 14.0048 2.32431 14.2215C2.5797 14.4383 2.99378 14.4383 3.24917 14.2215L6.05098 11.844L8.85278 14.2215C9.10817 14.4383 9.52225 14.4383 9.77764 14.2215C10.033 14.0048 10.033 13.6534 9.77764 13.4367L6.97584 11.0592L9.77761 8.68168C10.033 8.46496 10.033 8.11358 9.77761 7.89686C9.52221 7.68014 9.10814 7.68014 8.85275 7.89686L6.05098 10.2744L3.24921 7.89686C2.99381 7.68014 2.57974 7.68014 2.32434 7.89686Z" fill="#1D7044"/>
</svg>
