<svg width="16" height="18" viewBox="0 0 16 18" fill="none" xmlns="http://www.w3.org/2000/svg">
<path fill-rule="evenodd" clip-rule="evenodd" d="M15.8 4.24594L11.4267 0.1728L10.96 0H0.666667L0 0.617143V7.40571H1.33333V1.23429H9.33333V5.55429L10 6.17143H14.6667V7.40571H16V4.69029L15.8 4.24594ZM10.6667 4.93714V1.23429L14.6667 4.93714H10.6667ZM0.666667 8.64L0 9.25714V16.6629L0.666667 17.28H15.3333L16 16.6629V9.25714L15.3333 8.64H0.666667ZM14.6667 14.8114V16.0457H1.33333V9.87429H14.6667V14.8114ZM4.00003 13.5771H3.57337V14.8114H2.6667V11.1086H4.08003C5.08003 11.1086 5.5867 11.5529 5.5867 12.3429C5.58928 12.5107 5.55247 12.6771 5.4788 12.8306C5.40514 12.984 5.29638 13.1208 5.16003 13.2315C4.82961 13.47 4.41866 13.5924 4.00003 13.5771ZM3.92003 11.7874H3.57337V12.9353H3.92003C4.40003 12.9353 4.64003 12.7378 4.64003 12.3552C4.64003 11.9726 4.40003 11.7874 3.92003 11.7874ZM9.33334 14.293C9.53025 14.1135 9.68423 13.8977 9.78529 13.6595C9.88636 13.4214 9.93225 13.1662 9.92001 12.9106C9.92001 11.6763 9.21334 11.1086 7.78667 11.1086H6.37334V14.8114H7.78667C8.06871 14.8241 8.35065 14.7848 8.61615 14.6958C8.88165 14.6068 9.12542 14.4699 9.33334 14.293ZM7.26667 14.1326V11.7874H7.70667C7.87673 11.7774 8.04721 11.7996 8.20769 11.8527C8.36816 11.9057 8.51527 11.9885 8.64001 12.096C8.75302 12.2059 8.84081 12.3358 8.8981 12.4779C8.95539 12.62 8.98099 12.7714 8.97334 12.923C8.99331 13.2483 8.87349 13.5678 8.64001 13.8117C8.51794 13.9198 8.37352 14.004 8.21542 14.0591C8.05732 14.1143 7.8888 14.1392 7.72001 14.1326H7.26667ZM13.2 13.3797H11.9067V14.8114H11V11.1086H13.32V11.7874H11.9067V12.7008H13.2V13.3797Z" fill="#DB4343"/>
</svg>
