<svg width="34" height="34" viewBox="0 0 34 34" fill="none" xmlns="http://www.w3.org/2000/svg">
<circle cx="17" cy="17" r="17" fill="white"/>
<path d="M11.341 7.183C11.2357 7.30153 11.1961 7.92051 11.2225 9.03995C11.262 10.4755 11.3015 10.7389 11.4991 10.8706C11.6571 10.9759 11.7888 10.9759 11.96 10.8706C12.1444 10.7389 12.1839 10.4755 12.2234 9.03995C12.2629 7.30153 12.1839 6.99862 11.7229 6.99862C11.5912 6.99862 11.42 7.07764 11.341 7.183Z" fill="#366E55"/>
<path d="M21.8769 7.183C21.7716 7.30153 21.732 7.92051 21.7584 9.03995C21.7979 10.4755 21.8374 10.7389 22.035 10.8706C22.193 10.9759 22.3247 10.9759 22.4959 10.8706C22.6803 10.7389 22.7198 10.4755 22.7593 9.03995C22.7988 7.30153 22.7198 6.99862 22.2588 6.99862C22.1271 6.99862 21.9559 7.07764 21.8769 7.183Z" fill="#366E55"/>
<path d="M8.49632 8.76339C7.93002 9.01362 7.25835 9.75113 7.10032 10.2911C7.0213 10.594 6.98179 13.3202 7.00813 18.0745L7.04764 25.3838L7.36371 25.8579C7.53492 26.1081 7.89051 26.4637 8.14074 26.6349L8.61485 26.951L16.6485 26.9905C22.1271 27.0168 24.8533 26.9905 25.1826 26.8851C25.8411 26.7008 26.46 26.1476 26.7498 25.5023C26.9737 25.015 27 24.4751 27 17.7979C27 11.1208 26.9737 10.5808 26.7498 10.0935C26.2757 9.05313 25.3011 8.52633 23.9841 8.60535C23.1807 8.64486 22.8647 8.92143 23.1281 9.3297C23.2334 9.51407 23.51 9.57992 24.2212 9.6326C25.1035 9.69845 25.2089 9.73796 25.5645 10.1331L25.9464 10.5545V17.6662C25.9464 21.9596 25.8937 24.8965 25.8147 25.094C25.7489 25.2784 25.4986 25.555 25.2616 25.6999C24.8401 25.9501 24.5899 25.9632 16.9909 25.9632C9.39187 25.9632 9.14165 25.9501 8.72021 25.6999C8.48315 25.555 8.23292 25.2784 8.16708 25.094C8.08806 24.8965 8.03538 21.9596 8.03538 17.6662V10.5545L8.4173 10.1331C8.77289 9.73796 8.87825 9.69845 9.76063 9.6326C10.8011 9.56675 11.1435 9.3297 10.8537 8.86875C10.6694 8.57901 9.0758 8.49999 8.49632 8.76339Z" fill="#366E55"/>
<path d="M12.6712 8.73704C12.4605 8.94776 12.4736 9.30334 12.6975 9.48772C12.816 9.59308 14.0804 9.63259 17.0567 9.60625C20.876 9.56674 21.2579 9.5404 21.3896 9.32968C21.495 9.17164 21.495 9.03994 21.3896 8.86874C21.2579 8.67119 20.876 8.64485 17.0436 8.60534C13.8828 8.579 12.7897 8.61851 12.6712 8.73704Z" fill="#366E55"/>
<path d="M9.15482 13.7548C9.11531 13.847 9.10214 14.9005 9.11531 16.0858L9.15482 18.2589H11.4595H13.7643V15.9541V13.6494L11.4859 13.6099C9.70795 13.5836 9.19432 13.6099 9.15482 13.7548ZM11.6571 15.5722C11.6571 16.2307 11.6176 16.4151 11.4595 16.4151C11.3147 16.4151 11.2488 16.2307 11.2225 15.7039C11.1698 14.9005 11.262 14.5976 11.4991 14.6767C11.6044 14.703 11.6571 15.0059 11.6571 15.5722ZM11.6703 17.1526C11.802 17.3765 11.4991 17.6267 11.3147 17.4423C11.1566 17.2843 11.262 17.0077 11.4595 17.0077C11.5254 17.0077 11.6176 17.0736 11.6703 17.1526Z" fill="#366E55"/>
<path d="M14.8837 13.847C14.6467 14.084 14.6203 14.2816 14.6203 15.9541C14.6203 17.6267 14.6467 17.8243 14.8837 18.0613C15.1208 18.2984 15.3183 18.3247 16.9909 18.3247C19.4537 18.3247 19.3615 18.4169 19.3615 15.9541C19.3615 14.2816 19.3351 14.084 19.0981 13.847C18.861 13.6099 18.6635 13.5836 16.9909 13.5836C15.3183 13.5836 15.1208 13.6099 14.8837 13.847ZM18.3079 15.9541V17.2711H16.9909H15.6739V15.9541V14.6372H16.9909H18.3079V15.9541Z" fill="#366E55"/>
<path d="M20.4151 13.847C20.178 14.084 20.1517 14.2816 20.1517 15.9541C20.1517 17.6267 20.178 17.8243 20.4151 18.0613C20.6521 18.2984 20.8497 18.3247 22.5222 18.3247C24.985 18.3247 24.8928 18.4169 24.8928 15.9541C24.8928 14.2816 24.8665 14.084 24.6294 13.847C24.3924 13.6099 24.1948 13.5836 22.5222 13.5836C20.8497 13.5836 20.6521 13.6099 20.4151 13.847ZM23.8392 15.9541V17.2711H22.5222H21.2053V15.9541V14.6372H22.5222H23.8392V15.9541Z" fill="#366E55"/>
<path d="M9.35236 19.3783C9.11531 19.6154 9.08897 19.8129 9.08897 21.4855C9.08897 23.9483 8.99678 23.8561 11.4595 23.8561C13.9223 23.8561 13.8301 23.9483 13.8301 21.4855C13.8301 19.8129 13.8038 19.6154 13.5667 19.3783C13.3297 19.1413 13.1321 19.1149 11.4595 19.1149C9.78697 19.1149 9.58942 19.1413 9.35236 19.3783ZM12.7765 21.4855V22.8025H11.4595H10.1426V21.4855V20.1685H11.4595H12.7765V21.4855Z" fill="#366E55"/>
<path d="M14.8837 19.3783C14.6467 19.6154 14.6203 19.8129 14.6203 21.4855C14.6203 23.1581 14.6467 23.3556 14.8837 23.5927C15.1208 23.8297 15.3183 23.8561 16.9909 23.8561C19.4537 23.8561 19.3615 23.9483 19.3615 21.4855C19.3615 19.8129 19.3351 19.6154 19.0981 19.3783C18.861 19.1413 18.6635 19.1149 16.9909 19.1149C15.3183 19.1149 15.1208 19.1413 14.8837 19.3783ZM18.3079 21.4855V22.8025H16.9909H15.6739V21.4855V20.1685H16.9909H18.3079V21.4855Z" fill="#366E55"/>
<path d="M20.4151 19.3783C20.178 19.6154 20.1517 19.8129 20.1517 21.4855C20.1517 23.1581 20.178 23.3556 20.4151 23.5927C20.6521 23.8297 20.8497 23.8561 22.5222 23.8561C24.985 23.8561 24.8928 23.9483 24.8928 21.4855C24.8928 19.8129 24.8665 19.6154 24.6294 19.3783C24.3924 19.1413 24.1948 19.1149 22.5222 19.1149C20.8497 19.1149 20.6521 19.1413 20.4151 19.3783ZM23.8392 21.4855V22.8025H22.5222H21.2053V21.4855V20.1685H22.5222H23.8392V21.4855Z" fill="#366E55"/>
</svg>
