<svg width="90" height="64" viewBox="0 0 90 64" fill="none" xmlns="http://www.w3.org/2000/svg">
<path d="M19.3443 0.847112C18.7677 1.42374 18.7677 2.80764 19.3443 3.38426C20.4207 4.46063 22.3428 3.65335 22.3428 2.11569C22.3428 1.07776 21.6508 0.385812 20.6129 0.385812C20.1516 0.385812 19.6134 0.57802 19.3443 0.847112ZM21.4971 2.0388C21.6508 2.80764 20.536 3.34582 19.9594 2.7692C19.3828 2.19257 19.921 1.07776 20.6898 1.23153C21.0742 1.30841 21.4202 1.65439 21.4971 2.0388Z" fill="#394C62"/>
<path d="M61.63 0.847131C61.3609 1.11622 61.1687 1.65441 61.1687 2.11571C61.1687 2.57701 61.3609 3.11519 61.63 3.38428C61.8991 3.65337 62.4373 3.84558 62.8986 3.84558C63.3599 3.84558 63.8981 3.65337 64.1672 3.38428C64.4362 3.11519 64.6285 2.57701 64.6285 2.11571C64.6285 1.65441 64.4362 1.11622 64.1672 0.847131C63.8981 0.57804 63.3599 0.385831 62.8986 0.385831C62.4373 0.385831 61.8991 0.57804 61.63 0.847131ZM63.7827 2.03882C63.9365 2.80766 62.8217 3.34584 62.2451 2.76921C61.6684 2.19259 62.2066 1.07778 62.9755 1.23155C63.3599 1.30843 63.7059 1.65441 63.7827 2.03882Z" fill="#394C62"/>
<path d="M85.8483 1.23147C85.5792 1.50056 85.387 2.03874 85.387 2.50004C85.387 2.96134 85.5792 3.49953 85.8483 3.76862C86.1174 4.03771 86.6555 4.22992 87.1168 4.22992C87.5781 4.22992 88.1163 4.03771 88.3854 3.76862C88.6545 3.49953 88.8467 2.96134 88.8467 2.50004C88.8467 2.03874 88.6545 1.50056 88.3854 1.23147C88.1163 0.962378 87.5781 0.77017 87.1168 0.77017C86.6555 0.77017 86.1174 0.962378 85.8483 1.23147ZM88.001 2.42316C88.1548 3.19199 87.04 3.73018 86.4633 3.15355C85.8867 2.57693 86.4249 1.46212 87.1937 1.61589C87.5781 1.69277 87.9241 2.03874 88.001 2.42316Z" fill="#394C62"/>
<path d="M0.4613 1.23147C0.192208 1.50056 0 2.03874 0 2.50004C0 2.96134 0.192208 3.49953 0.4613 3.76862C0.730392 4.03771 1.26857 4.22992 1.72987 4.22992C2.19117 4.22992 2.72936 4.03771 2.99845 3.76862C3.26754 3.49953 3.45975 2.96134 3.45975 2.50004C3.45975 2.03874 3.26754 1.50056 2.99845 1.23147C2.72936 0.962378 2.19117 0.77017 1.72987 0.77017C1.26857 0.77017 0.730392 0.962378 0.4613 1.23147ZM2.61403 2.42316C2.7678 3.19199 1.65299 3.73018 1.07637 3.15355C0.499742 2.57693 1.03792 1.46212 1.80676 1.61589C2.19117 1.69277 2.53715 2.03874 2.61403 2.42316Z" fill="#394C62"/>
<path d="M11.2716 17.7615C10.695 18.3381 10.695 19.722 11.2716 20.2986C12.3479 21.375 14.27 20.5677 14.27 19.0301C14.27 18.5688 14.0778 18.0306 13.8087 17.7615C13.5396 17.4924 13.0015 17.3002 12.5402 17.3002C12.0789 17.3002 11.5407 17.4924 11.2716 17.7615ZM13.4243 18.9532C13.5781 19.722 12.4633 20.2602 11.8866 19.6836C11.31 19.1069 11.8482 17.9921 12.617 18.1459C13.0015 18.2228 13.3474 18.5688 13.4243 18.9532Z" fill="#394C62"/>
<path d="M73.9313 20.068C73.6622 20.337 73.47 20.8752 73.47 21.3365C73.47 21.7978 73.6622 22.336 73.9313 22.6051C74.2004 22.8742 74.7385 23.0664 75.1998 23.0664C75.6611 23.0664 76.1993 22.8742 76.4684 22.6051C76.7375 22.336 76.9297 21.7978 76.9297 21.3365C76.9297 20.8752 76.7375 20.337 76.4684 20.068C76.1993 19.7989 75.6611 19.6067 75.1998 19.6067C74.7385 19.6067 74.2004 19.7989 73.9313 20.068ZM76.084 21.2596C76.2378 22.0285 75.123 22.5667 74.5463 21.99C73.9697 21.4134 74.5079 20.2986 75.2767 20.4524C75.6611 20.5293 76.0071 20.8752 76.084 21.2596Z" fill="#394C62"/>
<path d="M32.2223 32.2155C31.8379 32.6384 29.4929 33.4072 26.1101 34.2145C18.1526 36.175 18.6908 35.4062 17.2685 46.4774C16.615 51.3979 16.1921 55.4727 16.269 55.588C16.6534 55.934 48.4831 55.934 48.4831 55.5496C48.4447 54.5501 47.7143 54.2426 45.0234 54.1272L42.1403 54.0119L42.0249 48.9761L41.9096 43.9402L44.3699 41.7875C45.946 40.4036 47.253 38.8275 48.0603 37.3282C48.7138 36.0597 49.4057 34.9064 49.5979 34.8295C49.7517 34.7142 50.559 34.7911 51.3278 35.0217C52.5195 35.3677 52.9424 35.2908 53.7881 34.7526L54.826 34.0607L52.4042 33.3687C51.0587 32.9459 49.9055 32.4077 49.7901 32.1002C49.6364 31.6773 49.3673 31.6773 48.6753 31.9848C48.1756 32.2155 47.8681 32.5999 47.9449 32.8306C48.2909 33.7147 45.254 38.5199 43.2551 40.2114C42.1787 41.134 41.1023 41.9028 40.9101 41.9028C40.6795 41.9028 39.5647 40.9033 38.4114 39.6732C36.3356 37.5204 34.2597 34.0991 34.2597 32.9074C34.2597 32.5615 33.9522 32.1386 33.5293 31.9464C32.9911 31.6389 32.6836 31.7158 32.2223 32.2155ZM33.9137 36.8669C34.5672 38.174 36.2202 40.2114 37.5657 41.5184L40.026 43.9018V49.0529V54.2041H29.3007C23.3807 54.2041 18.4602 54.0888 18.3833 53.8966C18.268 53.7428 18.6524 50.2062 19.229 46.0545C19.921 40.9033 20.4207 38.2893 20.8051 37.9049C21.228 37.4436 30.5309 34.868 32.4145 34.6373C32.5683 34.5989 33.2218 35.6368 33.9137 36.8669Z" fill="#394C62"/>
<circle cx="41.4532" cy="18.5065" r="10.9074" stroke="#5A8DEE" stroke-width="1.7"/>
<path d="M60.3998 33.6378C56.2865 34.8295 52.3655 38.2124 50.4818 42.2103C49.5977 44.1324 49.4439 44.9012 49.4439 48.4379C49.4439 52.2436 49.5208 52.6665 50.674 55.0114C51.7888 57.2795 53.8647 59.7397 55.979 61.3158C56.6709 61.8156 54.3644 61.854 35.6049 61.8924C14.116 61.8924 13.2703 61.9309 13.77 63.2763C14.0776 64.0836 82.1193 64.0836 82.4268 63.2763C82.8497 62.1615 81.7733 61.8924 77.2757 61.8924H72.778L75.3536 59.2784C78.8518 55.8187 79.7744 53.5122 79.8128 48.3994C79.8128 44.9397 79.7359 44.5937 78.3905 41.8259C76.6606 38.3662 74.431 36.1365 70.9328 34.522C67.8574 33.0996 63.6673 32.7537 60.3998 33.6378ZM70.5099 36.4441C73.4315 37.9049 75.4689 39.9807 76.8912 43.0176C77.737 44.8628 77.8907 45.6701 77.8907 48.6301C77.8907 51.6285 77.737 52.3974 76.8144 54.281C75.4305 57.1257 72.2398 60.0472 69.3182 61.1236C67.5884 61.7771 66.512 61.9309 64.0517 61.8156C58.7468 61.5849 54.7488 58.9709 52.4423 54.281C50.9431 51.2826 50.7509 46.9002 51.9042 43.7864C52.8268 41.3646 55.1717 38.443 57.3244 37.0976C61.3224 34.5604 66.2045 34.3298 70.5099 36.4441Z" fill="#394C62"/>
<path d="M63.7828 43.7095L58.9007 48.6301L58.6316 50.8981L58.3625 53.1662L60.6306 52.8971L62.8987 52.628L67.8961 47.669L72.8935 42.6716L70.9714 40.7495C69.9335 39.7116 68.9724 38.8275 68.8571 38.8275C68.7418 38.8275 66.4737 41.0186 63.7828 43.7095ZM69.6644 41.9412L70.5101 42.787L66.2815 46.9386C61.9761 51.2057 60.4 52.0898 60.4 50.2831C60.4 49.7064 61.7454 48.0535 64.5132 45.2857C66.7813 42.9792 68.7034 41.134 68.7418 41.134C68.8187 41.134 69.2415 41.5184 69.6644 41.9412Z" fill="#5A8DEE"/>
<path d="M56.5559 55.1651C56.1715 55.6264 56.1715 55.8571 56.5559 56.3184C56.9403 56.7797 58.2473 56.895 63.6676 56.895C69.0879 56.895 70.3949 56.7797 70.7793 56.3184C71.1637 55.8571 71.1637 55.6264 70.7793 55.1651C70.3949 54.7038 69.0879 54.5885 63.6676 54.5885C58.2473 54.5885 56.9403 54.7038 56.5559 55.1651Z" fill="#5A8DEE"/>
<path d="M6.62016 62.2384C5.96666 62.6613 6.35107 63.8145 7.11991 63.8145C7.96562 63.8145 8.27316 63.0457 7.69653 62.4306C7.35056 62.1231 6.96614 62.0462 6.62016 62.2384Z" fill="#394C62"/>
<path d="M9.7722 62.1616C9.50311 62.2384 9.27246 62.6613 9.27246 63.0842C9.27246 63.6608 9.54155 63.8145 10.7717 63.8145C12.3478 63.8145 13.0397 63.1226 12.2325 62.3153C11.8096 61.8925 10.6179 61.8156 9.7722 62.1616Z" fill="#394C62"/>
<path d="M83.9646 62.3153C83.1574 63.1226 83.8493 63.8145 85.4254 63.8145C86.6555 63.8145 86.9246 63.6608 86.9246 63.0842C86.9246 61.9693 84.8488 61.4312 83.9646 62.3153Z" fill="#394C62"/>
<path d="M88.4239 62.5075C88.0779 62.9304 88.0779 63.1995 88.3855 63.507C88.9237 64.0452 90 63.6224 90 62.892C90 62.1231 88.9621 61.854 88.4239 62.5075Z" fill="#394C62"/>
</svg>
