<svg width="90" height="64" viewBox="0 0 90 64" fill="none" xmlns="http://www.w3.org/2000/svg">
<path d="M19.3443 0.847112C18.7676 1.42374 18.7676 2.80764 19.3443 3.38426C20.4206 4.46063 22.3427 3.65335 22.3427 2.11569C22.3427 1.07776 21.6508 0.385812 20.6128 0.385812C20.1515 0.385812 19.6134 0.57802 19.3443 0.847112ZM21.497 2.0388C21.6508 2.80764 20.536 3.34582 19.9593 2.7692C19.3827 2.19257 19.9209 1.07776 20.6897 1.23153C21.0741 1.30841 21.4201 1.65439 21.497 2.0388Z" fill="#394C62"/>
<path d="M61.6301 0.847101C61.361 1.11619 61.1688 1.65438 61.1688 2.11568C61.1688 2.57698 61.361 3.11516 61.6301 3.38425C61.8992 3.65334 62.4373 3.84555 62.8986 3.84555C63.3599 3.84555 63.8981 3.65334 64.1672 3.38425C64.4363 3.11516 64.6285 2.57698 64.6285 2.11568C64.6285 1.65438 64.4363 1.11619 64.1672 0.847101C63.8981 0.578009 63.3599 0.385801 62.8986 0.385801C62.4373 0.385801 61.8992 0.578009 61.6301 0.847101ZM63.7828 2.03879C63.9366 2.80763 62.8218 3.34581 62.2451 2.76918C61.6685 2.19256 62.2067 1.07775 62.9755 1.23152C63.3599 1.3084 63.7059 1.65438 63.7828 2.03879Z" fill="#394C62"/>
<path d="M85.8483 1.23147C85.5792 1.50056 85.387 2.03874 85.387 2.50004C85.387 2.96134 85.5792 3.49953 85.8483 3.76862C86.1174 4.03771 86.6556 4.22992 87.1169 4.22992C87.5782 4.22992 88.1164 4.03771 88.3855 3.76862C88.6546 3.49953 88.8468 2.96134 88.8468 2.50004C88.8468 2.03874 88.6546 1.50056 88.3855 1.23147C88.1164 0.962378 87.5782 0.77017 87.1169 0.77017C86.6556 0.77017 86.1174 0.962378 85.8483 1.23147ZM88.0011 2.42316C88.1548 3.19199 87.04 3.73018 86.4634 3.15355C85.8868 2.57693 86.4249 1.46212 87.1938 1.61589C87.5782 1.69277 87.9242 2.03874 88.0011 2.42316Z" fill="#394C62"/>
<path d="M0.4613 1.23147C0.192208 1.50056 0 2.03874 0 2.50004C0 2.96134 0.192208 3.49953 0.4613 3.76862C0.730392 4.03771 1.26857 4.22992 1.72987 4.22992C2.19117 4.22992 2.72936 4.03771 2.99845 3.76862C3.26754 3.49953 3.45975 2.96134 3.45975 2.50004C3.45975 2.03874 3.26754 1.50056 2.99845 1.23147C2.72936 0.962378 2.19117 0.77017 1.72987 0.77017C1.26857 0.77017 0.730392 0.962378 0.4613 1.23147ZM2.61403 2.42316C2.7678 3.19199 1.65299 3.73018 1.07637 3.15355C0.499742 2.57693 1.03792 1.46212 1.80676 1.61589C2.19117 1.69277 2.53715 2.03874 2.61403 2.42316Z" fill="#394C62"/>
<path d="M11.2716 17.7614C10.695 18.3381 10.695 19.722 11.2716 20.2986C12.3479 21.375 14.27 20.5677 14.27 19.03C14.27 18.5687 14.0778 18.0305 13.8087 17.7614C13.5396 17.4924 13.0015 17.3001 12.5402 17.3001C12.0789 17.3001 11.5407 17.4924 11.2716 17.7614ZM13.4243 18.9531C13.5781 19.722 12.4633 20.2602 11.8866 19.6835C11.31 19.1069 11.8482 17.9921 12.617 18.1459C13.0015 18.2227 13.3474 18.5687 13.4243 18.9531Z" fill="#394C62"/>
<path d="M73.9313 20.0679C73.6622 20.337 73.47 20.8752 73.47 21.3365C73.47 21.7978 73.6622 22.336 73.9313 22.6051C74.2004 22.8742 74.7386 23.0664 75.1999 23.0664C75.6612 23.0664 76.1994 22.8742 76.4685 22.6051C76.7376 22.336 76.9298 21.7978 76.9298 21.3365C76.9298 20.8752 76.7376 20.337 76.4685 20.0679C76.1994 19.7988 75.6612 19.6066 75.1999 19.6066C74.7386 19.6066 74.2004 19.7988 73.9313 20.0679ZM76.0841 21.2596C76.2378 22.0285 75.123 22.5666 74.5464 21.99C73.9698 21.4134 74.508 20.2986 75.2768 20.4523C75.6612 20.5292 76.0072 20.8752 76.0841 21.2596Z" fill="#394C62"/>
<path d="M32.2223 32.2155C31.8379 32.6383 29.4929 33.4072 26.1101 34.2144C18.1526 36.175 18.6908 35.4061 17.2685 46.4773C16.615 51.3979 16.1921 55.4727 16.269 55.588C16.6534 55.934 48.4831 55.934 48.4831 55.5496C48.4447 54.5501 47.7143 54.2425 45.0234 54.1272L42.1403 54.0119L42.0249 48.976L41.9096 43.9402L44.3699 41.7874C45.946 40.4035 47.253 38.8274 48.0603 37.3282C48.7138 36.0596 49.4057 34.9064 49.5979 34.8295C49.7517 34.7142 50.559 34.7911 51.3278 35.0217C52.5195 35.3677 52.9424 35.2908 53.7881 34.7526L54.826 34.0607L52.4042 33.3687C51.0587 32.9459 49.9055 32.4077 49.7901 32.1001C49.6364 31.6773 49.3673 31.6773 48.6753 31.9848C48.1756 32.2155 47.8681 32.5999 47.9449 32.8305C48.2909 33.7147 45.254 38.5199 43.2551 40.2113C42.1787 41.1339 41.1023 41.9028 40.9101 41.9028C40.6795 41.9028 39.5647 40.9033 38.4114 39.6731C36.3356 37.5204 34.2597 34.0991 34.2597 32.9074C34.2597 32.5614 33.9522 32.1386 33.5293 31.9464C32.9911 31.6388 32.6836 31.7157 32.2223 32.2155ZM33.9137 36.8669C34.5672 38.1739 36.2202 40.2113 37.5657 41.5183L40.026 43.9017V49.0529V54.2041H29.3007C23.3807 54.2041 18.4602 54.0888 18.3833 53.8966C18.268 53.7428 18.6524 50.2062 19.229 46.0545C19.921 40.9033 20.4207 38.2892 20.8051 37.9048C21.228 37.4435 30.5309 34.8679 32.4145 34.6373C32.5683 34.5989 33.2218 35.6368 33.9137 36.8669Z" fill="#394C62"/>
<circle cx="41.4532" cy="18.5065" r="10.9074" stroke="#394C62" stroke-width="1.7"/>
<path d="M56 56V44H60V56H56ZM61 56V49H65V56H61ZM68 56V40H72V56H68Z" fill="#5A8DEE"/>
<path d="M60.3999 33.6378C56.2866 34.8295 52.3656 38.2124 50.4819 42.2103C49.5978 44.1324 49.444 44.9012 49.444 48.4379C49.444 52.2436 49.5209 52.6665 50.6741 55.0114C51.789 57.2794 53.8648 59.7397 55.9791 61.3158C56.671 61.8156 54.3645 61.854 35.605 61.8924C14.1161 61.8924 13.2704 61.9309 13.7701 63.2763C14.0777 64.0836 82.1194 64.0836 82.427 63.2763C82.8498 62.1615 81.7735 61.8924 77.2758 61.8924H72.7781L75.3537 59.2784C78.8519 55.8187 79.7745 53.5122 79.8129 48.3994C79.8129 44.9397 79.736 44.5937 78.3906 41.8259C76.6607 38.3662 74.4311 36.1365 70.9329 34.522C67.8576 33.0996 63.6674 32.7537 60.3999 33.6378ZM70.51 36.4441C73.4316 37.9049 75.469 39.9807 76.8914 43.0176C77.7371 44.8628 77.8908 45.6701 77.8908 48.6301C77.8908 51.6285 77.7371 52.3974 76.8145 54.281C75.4306 57.1257 72.2399 60.0472 69.3184 61.1236C67.5885 61.7771 66.5121 61.9309 64.0518 61.8156C58.7469 61.5849 54.749 58.9709 52.4425 54.281C50.9432 51.2826 50.751 46.9002 51.9043 43.7864C52.8269 41.3646 55.1718 38.443 57.3246 37.0976C61.3225 34.5604 66.2046 34.3298 70.51 36.4441Z" fill="#394C62"/>
<path d="M6.62004 62.2384C5.96653 62.6613 6.35095 63.8145 7.11978 63.8145C7.9655 63.8145 8.27303 63.0457 7.69641 62.4306C7.35043 62.1231 6.96602 62.0462 6.62004 62.2384Z" fill="#394C62"/>
<path d="M9.77232 62.1616C9.50323 62.2384 9.27258 62.6613 9.27258 63.0842C9.27258 63.6608 9.54167 63.8145 10.7718 63.8145C12.3479 63.8145 13.0399 63.1226 12.2326 62.3153C11.8097 61.8925 10.618 61.8156 9.77232 62.1616Z" fill="#394C62"/>
<path d="M83.9646 62.3153C83.1574 63.1226 83.8493 63.8145 85.4254 63.8145C86.6555 63.8145 86.9246 63.6608 86.9246 63.0842C86.9246 61.9693 84.8488 61.4312 83.9646 62.3153Z" fill="#394C62"/>
<path d="M88.4239 62.5075C88.0779 62.9304 88.0779 63.1995 88.3855 63.507C88.9237 64.0452 90 63.6224 90 62.892C90 62.1231 88.9621 61.854 88.4239 62.5075Z" fill="#394C62"/>
</svg>
