<svg width="18" height="18" viewBox="0 0 18 18" fill="none" xmlns="http://www.w3.org/2000/svg">
<path d="M2.24448 0.102766C1.42753 0.245944 0.703217 0.776545 0.324217 1.50928C0.063128 2.02303 -0.0379387 2.86526 0.0125946 4.07806C0.0547058 4.99608 0.0883947 5.22348 0.282106 5.64459C0.661106 6.48681 1.43595 7.07637 2.26133 7.16059L2.6656 7.19428L2.69929 10.201L2.72455 13.1993L2.96037 13.7131C3.52466 14.9343 4.38373 15.3386 6.43875 15.347H7.20518L7.26413 15.7344C7.38204 16.6188 7.95475 17.3683 8.82224 17.781L9.29389 18H12.5786H15.8632L16.377 17.7642C17.6656 17.1662 18.0867 16.1724 17.9856 13.9405C17.9267 12.7445 17.7161 12.1297 17.1855 11.616C16.3938 10.858 15.8716 10.7737 12.1153 10.8158L9.29389 10.8411L8.72118 11.119C8.30849 11.3212 8.05582 11.5233 7.82 11.8181C7.49996 12.2308 7.23044 12.8961 7.23044 13.3004C7.23044 13.4941 7.22202 13.4941 6.12713 13.4941H5.02382L4.77958 13.2499L4.53533 13.0056V10.1336V7.27008L10.2035 7.23639C14.5662 7.21955 15.9306 7.18586 16.158 7.10164C16.8907 6.83213 17.6319 6.07413 17.8425 5.3835C17.9856 4.89501 18.0446 3.21057 17.9435 2.47783C17.7919 1.41663 17.295 0.726011 16.377 0.296478L15.8632 0.0606553L9.25178 0.0438108C5.61338 0.0438108 2.46346 0.0690775 2.24448 0.102766ZM15.9138 2.11568L16.158 2.35992V3.6401V4.92028L15.9138 5.16453L15.6695 5.40877H8.99911H2.32871L2.08446 5.16453L1.84022 4.92028V3.6401V2.35992L2.08446 2.11568L2.32871 1.87143H8.99911H15.6695L15.9138 2.11568ZM15.9138 12.8961L16.158 13.1404V14.4206V15.7007L15.9138 15.945L15.6695 16.1892H12.6628C9.4118 16.1892 9.30231 16.1724 9.10018 15.726C8.957 15.4144 8.97384 13.3509 9.11702 13.0814C9.34442 12.6687 9.42022 12.6603 12.6459 12.6519H15.6695L15.9138 12.8961Z" fill="#0D9CBD"/>
</svg>
