<svg width="34" height="34" viewBox="0 0 34 34" fill="none" xmlns="http://www.w3.org/2000/svg">
<circle cx="17" cy="17" r="17" fill="white"/>
<path d="M15.3883 5.36602C14.5993 5.76052 13.8862 6.59504 13.6738 7.38404C13.5827 7.71785 13.5372 8.73445 13.5675 9.66001C13.5979 11.0559 13.6738 11.4656 13.962 11.9967C14.1441 12.3456 14.2959 12.7401 14.2959 12.8615C14.2959 13.2409 13.7496 13.6657 13.1275 13.7567C12.6572 13.8478 12.3992 13.7871 11.8226 13.4533C11.2005 13.1043 10.9578 13.0588 10.1232 13.1195C9.31908 13.165 9.04596 13.256 8.57559 13.6505C7.559 14.4699 7.39209 14.9099 7.39209 16.8065C7.39209 18.248 7.43761 18.5514 7.7259 19.037C8.24179 19.9018 8.07488 20.1598 6.80034 20.5239C5.34373 20.9488 4.85819 21.146 4.55473 21.404C4.22092 21.6923 3.9478 22.9972 4.00849 24.12L4.05401 25H17.027H30L29.9697 23.6496C29.909 21.3129 29.7876 21.1764 27.3751 20.5088C25.9336 20.1143 25.7819 19.9018 26.2826 18.9308C26.5254 18.4452 26.5861 18.0507 26.5861 16.7762C26.5861 14.9706 26.4192 14.4395 25.6301 13.7416C24.5529 12.7857 23.1114 12.6946 21.9734 13.4988C21.3513 13.9388 21.321 13.954 20.623 13.7416C19.5913 13.4381 19.4395 13.0588 19.9706 12.0118C20.3347 11.2835 20.3651 11.0559 20.3651 9.38689C20.3651 7.3537 20.1678 6.68608 19.3637 5.92743C18.3774 5.00187 16.6173 4.7591 15.3883 5.36602ZM18.2409 6.27641C19.1968 6.82264 19.4547 7.47508 19.4547 9.37172C19.4547 10.8435 19.4092 11.0711 19.0602 11.7235C18.7264 12.3456 18.6809 12.5732 18.7567 13.1498C18.8781 13.9236 19.0754 14.1361 20.0313 14.4699L20.7292 14.6975L20.6837 16.4727C20.6534 18.0659 20.6837 18.3238 20.9872 18.9459C21.4575 19.8715 21.321 20.0384 19.6975 20.5391C17.6188 21.1764 17.4974 21.3281 17.2546 23.4372C17.118 24.6814 16.7842 24.6055 16.6477 23.3006C16.4353 21.3129 16.3594 21.2522 13.5068 20.4481C12.4903 20.175 12.4144 19.9777 12.9454 18.779C13.2186 18.1721 13.2489 17.8383 13.2034 16.6093C13.173 15.7899 13.082 15.0313 13.0365 14.8947C12.9454 14.7126 13.082 14.6216 13.6738 14.4699C14.5841 14.2423 14.8421 13.9843 15.0393 13.0891C15.1759 12.467 15.1607 12.3608 14.7814 11.8146C14.3869 11.2532 14.3717 11.1318 14.3717 9.37172C14.3717 7.61164 14.3869 7.50543 14.7814 6.98954C15.5704 5.95777 17.1029 5.63914 18.2409 6.27641ZM11.3826 14.2575C12.1564 14.743 12.3385 15.3044 12.293 16.9734C12.2627 18.2328 12.202 18.5818 11.9592 18.8397C11.7316 19.0825 11.6861 19.2949 11.7619 19.8563C11.7923 20.2356 11.944 20.6605 12.0654 20.7819C12.1868 20.9033 12.9606 21.2067 13.78 21.4495C14.6145 21.7074 15.358 21.9806 15.4642 22.0868C15.5552 22.193 15.6918 22.6937 15.7525 23.2096L15.8587 24.1655H10.275H4.69128L4.79749 23.2247C4.84301 22.7089 4.97957 22.193 5.10096 22.0716C5.20717 21.9654 5.981 21.6771 6.80034 21.4343C7.61969 21.1916 8.37834 20.8729 8.48456 20.7364C8.86388 20.2053 8.89423 19.4618 8.54525 18.8549C8.27213 18.3694 8.22661 18.0356 8.22661 16.7458C8.22661 15.2589 8.24179 15.2134 8.69698 14.6823C9.42529 13.863 10.4874 13.6809 11.3826 14.2575ZM25.1143 14.4395C25.5846 14.9099 25.5998 14.9554 25.6453 16.5031C25.6908 17.9293 25.6605 18.1569 25.3722 18.6576C25.1143 19.0977 25.0687 19.3556 25.1446 19.8715C25.266 20.6908 25.5391 20.8881 27.284 21.3736C28.0275 21.5709 28.7103 21.8137 28.8165 21.9199C28.9075 22.0261 29.0441 22.5723 29.1048 23.1337L29.211 24.1655H23.6273H18.0436L18.1498 23.2247C18.2105 22.7089 18.3167 22.1778 18.3926 22.0412C18.4685 21.8895 19.0602 21.6316 19.7885 21.4343C20.4865 21.2371 21.2451 20.9943 21.4727 20.8729C22.2162 20.5088 22.4135 19.4163 21.8824 18.6273C21.6396 18.248 21.5789 17.9142 21.5789 16.761C21.5789 15.1527 21.7762 14.6064 22.5348 14.1361C23.2935 13.6657 24.477 13.8023 25.1143 14.4395Z" fill="#5F4677"/>
</svg>
