<svg width="17" height="19" viewBox="0 0 17 19" fill="none" xmlns="http://www.w3.org/2000/svg">
<path d="M9.86398 0.792846C9.75669 0.839787 8.14395 2.48605 8.07019 2.62017C8.00313 2.74758 8.0199 3.00575 8.10037 3.13986C8.18083 3.26727 8.40548 3.39468 8.54965 3.39468C8.72065 3.39468 8.85812 3.30415 9.1934 2.96216L9.52869 2.62352L9.54546 5.26894C9.56222 7.87748 9.56222 7.91772 9.63263 8.00824C9.76339 8.18595 9.87069 8.23959 10.0819 8.23959C10.2931 8.23959 10.4004 8.18595 10.5312 8.00824C10.6016 7.91772 10.6016 7.87748 10.6184 5.26894L10.6351 2.62352L10.9704 2.96216C11.3057 3.30415 11.4432 3.39468 11.6142 3.39468C11.7584 3.39468 11.983 3.26727 12.0635 3.13986C12.1439 3.00575 12.1607 2.74758 12.0936 2.62017C12.0165 2.47599 10.4038 0.839787 10.2931 0.792846C10.159 0.735848 9.99474 0.735848 9.86398 0.792846Z" fill="#608CD7"/>
<path d="M6.84649 3.84396C6.72244 3.90095 6.61179 4.0183 6.56485 4.14236C6.53803 4.20607 6.52797 5.07782 6.52797 6.84143V9.44662L6.16921 9.08786C5.81045 8.73245 5.69981 8.65869 5.53216 8.65869C5.38799 8.65869 5.16335 8.78945 5.08288 8.91351C4.9957 9.05433 4.989 9.3058 5.06611 9.44997C5.09294 9.50362 5.49864 9.93614 5.96469 10.4089C7.1449 11.6092 6.98396 11.6092 8.16418 10.4089C8.63023 9.93614 9.03592 9.50362 9.06275 9.44997C9.13986 9.3058 9.13316 9.05433 9.04598 8.91351C8.96551 8.7861 8.74087 8.65869 8.5967 8.65869C8.4257 8.65869 8.28823 8.74922 7.95294 9.09121L7.61766 9.42985L7.60089 6.78443C7.58413 4.17589 7.58413 4.13566 7.51372 4.04513C7.47684 3.99483 7.40642 3.92107 7.35948 3.88754C7.24549 3.80372 6.98061 3.78025 6.84649 3.84396Z" fill="#608CD7"/>
<path d="M3.17504 4.71907C2.04847 4.94707 1.2069 5.82217 1.03255 6.94874C1.00238 7.13315 0.99567 8.40389 1.00238 11.7937C1.01243 16.7995 0.999023 16.424 1.19684 16.947C1.41813 17.5405 2.07195 18.1943 2.6654 18.4156C3.18845 18.6134 2.7794 18.6 8.50612 18.6C14.2328 18.6 13.8238 18.6134 14.3468 18.4156C14.9437 18.1943 15.5941 17.5438 15.8154 16.947C16.0132 16.424 15.9998 16.7794 15.9998 11.6428C15.9998 7.34773 15.9965 6.91521 15.9428 6.7308C15.7986 6.2044 15.5773 5.81547 15.2286 5.46341C15.0007 5.22871 14.6117 4.96719 14.3468 4.86995C13.864 4.6889 13.8372 4.68554 12.5262 4.68554H11.2991L11.1817 4.77607C10.8666 5.01413 10.9068 5.49359 11.2555 5.678C11.3628 5.735 11.4634 5.7417 12.4458 5.7417C13.6293 5.7417 13.75 5.75511 14.1088 5.94623C14.3435 6.07364 14.6352 6.36869 14.7559 6.60675C14.947 6.98562 14.9437 6.89845 14.9437 10.2077V13.2522H13.1499C11.222 13.2522 11.1415 13.2589 10.8062 13.4265C10.4709 13.5941 10.2496 13.849 10.0183 14.3284C9.85398 14.6738 9.78692 14.7777 9.62263 14.9319C8.97553 15.5522 8.03672 15.5522 7.38961 14.9319C7.22532 14.7744 7.15826 14.6738 6.99397 14.3284C6.82633 13.9864 6.75592 13.8791 6.58492 13.7081C6.36028 13.4869 6.11217 13.3494 5.83052 13.289C5.71317 13.2656 5.05266 13.2522 3.86238 13.2522H2.06859V10.2077C2.06859 7.61931 2.0753 7.1365 2.11889 6.97221C2.25635 6.4391 2.60841 6.05017 3.15157 5.83223C3.31586 5.76517 3.40304 5.75847 4.51955 5.7417L5.71317 5.72494L5.83052 5.63441C6.14569 5.39636 6.10546 4.91689 5.75676 4.73248C5.64947 4.67213 5.54888 4.66878 4.51619 4.67213C3.73162 4.67549 3.32592 4.6889 3.17504 4.71907ZM5.70982 14.3787C5.84729 14.4458 5.92105 14.543 6.02499 14.8079C6.45416 15.8875 7.65784 16.5916 8.82129 16.4441C9.78357 16.3234 10.6419 15.6729 10.9873 14.8079C11.0912 14.543 11.165 14.4458 11.3024 14.3787C11.403 14.3318 11.6209 14.3251 13.18 14.3251H14.9437V15.1935C14.9437 15.6696 14.9269 16.139 14.9101 16.2396C14.8263 16.6788 14.4944 17.1314 14.1088 17.3393C13.6997 17.5573 14.025 17.5438 8.50612 17.5438C2.98728 17.5438 3.31251 17.5573 2.90346 17.3393C2.66876 17.2119 2.37706 16.9169 2.25635 16.6788C2.08871 16.3469 2.06859 16.196 2.06859 15.2236V14.3251H3.83221C5.3913 14.3251 5.60923 14.3318 5.70982 14.3787Z" fill="#608CD7" stroke="#608CD7" stroke-width="0.5"/>
</svg>
